<svg fill="currentColor" version="1.1" id="Layer_1" xmlns="http://www.w3.org/2000/svg" x="0px" y="0px" viewBox="0 0 72 72" xml:space="preserve" role="img" aria-label="GitHub">
  <title>GitHub</title>
  <g>
    <path d="M27.5,54.5c0,0.2,0.3,0.4,0.6,0.4c0.3,0,0.6-0.2,0.6-0.4c0-0.2-0.3-0.4-0.6-0.4S27.5,54.3,27.5,54.5z"/>
    <path d="M27.1,64.1c0.9,0.2,1.7-0.5,1.7-1.5v-5.4c-1.1,0.2-2.4,0.3-3,0.3c-1.6-0.1-3.1-0.3-3.9-0.8c-0.9-0.5-2.1-1.5-2.5-2.3c-0.5-1.1-0.6-1.7-1.2-2.6c-0.5-0.9-1.5-1.8-2.1-2.1c-0.6-0.3-1.2-0.8-1.3-1.1c-0.1-0.3,0.1-0.7,0.7-0.8c0.6-0.1,1.6,0.1,2.6,0.6c0.8,0.4,1.7,1.4,2.3,2.3c0.7,1.1,1.7,2.1,2.5,2.6c0.8,0.5,2.5,0.7,4.1,0.5c0.6-0.1,1.3-0.3,1.8-0.6c0.2-1.5,0.9-2.8,1.9-3.9c-8.5-1-13.1-5-13.1-13.6c0-3.3,1.1-6.1,3-8.2c-0.2-0.5-0.4-1.1-0.5-1.9c-0.2-1.8,0-2.9,0.3-3.9c0.2-1.1,0.5-1.8,0.5-1.8s1.3-0.1,2.5,0.2c1.1,0.4,2.1,0.7,3.5,1.5c0.7,0.4,1.3,0.8,1.8,1.2c2.2-0.6,4.7-0.9,7.3-0.9c2.6,0,5,0.3,7.2,0.9c0.5-0.3,1.2-0.8,1.8-1.2c1.4-0.8,2.4-1.1,3.5-1.5c1.1-0.4,2.5-0.2,2.5-0.2s0.3,0.7,0.5,1.8c0.2,1.1,0.5,2.1,0.3,3.9c-0.1,0.8-0.3,1.4-0.5,1.9c1.9,2.2,3,4.9,3,8.2c0,8.7-4.7,12.6-13.1,13.6c1.2,1.3,2,3,2,4.9v8.4c0,0.9,0.8,1.6,1.7,1.5c11.6-3.7,19.9-14.6,19.9-27.4C64.8,20.8,51.9,7.9,36,7.9S7.2,20.8,7.2,36.7C7.2,49.5,15.5,60.3,27.1,64.1z"/>
    <path d="M23,54.4c0,0.2,0.2,0.4,0.5,0.4s0.6-0.1,0.6-0.3c0-0.2-0.2-0.4-0.5-0.4S23,54.2,23,54.4z"/>
    <path d="M25.3,54.8c0,0.2,0.2,0.4,0.6,0.4c0.3,0,0.6-0.1,0.6-0.3c0-0.2-0.2-0.4-0.6-0.4S25.3,54.6,25.3,54.8z"/>
    <path d="M21.1,53c-0.1,0.2,0,0.4,0.3,0.6c0.2,0.2,0.5,0.1,0.6,0c0.1-0.2,0-0.4-0.3-0.6C21.5,52.8,21.2,52.8,21.1,53z"/>
    <path d="M18.7,49.7c-0.1,0.1-0.1,0.4,0.1,0.5c0.2,0.2,0.4,0.2,0.6,0.1c0.1-0.1,0.1-0.4-0.1-0.5C19,49.6,18.8,49.6,18.7,49.7z"/>
    <path d="M17.4,48.8c-0.1,0.1,0,0.4,0.3,0.5c0.2,0.1,0.5,0.1,0.5-0.1s0-0.4-0.3-0.5C17.7,48.6,17.4,48.6,17.4,48.8z"/>
    <path d="M19.9,51.3c-0.1,0.1-0.1,0.4,0,0.6c0.2,0.2,0.4,0.3,0.6,0.2c0.1-0.1,0.1-0.4,0-0.6C20.3,51.3,20,51.2,19.9,51.3z"/>
  </g>
</svg>
